# xmcd CD database file
# 
# Track frame offsets:
# 	182
# 	11672
# 	25110
# 	40305
# 	57285
# 	70067
# 	86605
# 	102032
# 	115632
# 	129732
# 	139970
# 	151657
# 	164650
# 	181120
# 	199070
# 	210272
# 	226302
# 	238930
# 
# Disc length: 3368 seconds
# 
# Submitted via: Nero 5.5.10.20
# 
# Revision: 0
# Processed by: cddbd v1.4PL0 Copyright (c) Steve Scherf et al.
#
DISCID=ea0d2612
DTITLE=Plavci - Promovani inzenyri
DYEAR=1900
DGENRE=
TTITLE0=Erb toulaveho rodu
TTITLE1=Levak
TTITLE2=Ja a ty
TTITLE3=Nejsem dum hruzy
TTITLE4=Mam rad swing
TTITLE5=Bicykl
TTITLE6=Jak je znamo
TTITLE7=Ja si zajdu
TTITLE8=Evzen, lovec zen
TTITLE9=VUVR (Vyzkumny ustav vodnich radosti)
TTITLE10=A dur
TTITLE11=Oci tve lzou nejlip
TTITLE12=Jirka a cert
TTITLE13=Prilis stary do diskotek
TTITLE14=Cista voda
TTITLE15=Vecerni nalada
TTITLE16=Sejdeme se u Rotta
TTITLE17=Inzenyrska
EXTD=
EXTT0=
EXTT1=
EXTT2=
EXTT3=
EXTT4=
EXTT5=
EXTT6=
EXTT7=
EXTT8=
EXTT9=
EXTT10=
EXTT11=
EXTT12=
EXTT13=
EXTT14=
EXTT15=
EXTT16=
EXTT17=
PLAYORDER=
